# Blender 5.1.0
# www.blender.org
mtllib Cylinder.001.mtl
o Cylinder.001
v -4.512422 -0.034332 -0.180770
v -4.547642 0.058515 -0.215990
v -4.331652 -0.034332 -1.097337
v -4.331652 0.058515 -1.311135
v -4.150882 -0.034332 -0.180770
v -4.115662 0.058515 -0.215990
v -3.494715 -0.034332 0.000000
v -3.331652 0.058515 0.000000
v -4.150882 -0.034332 0.180770
v -4.115662 0.058515 0.215990
v -4.331652 -0.034332 1.097337
v -4.331652 0.058515 1.311135
v -4.512422 -0.034332 0.180770
v -4.547642 0.058515 0.215990
v -5.168588 -0.034332 0.000000
v -5.331652 0.058515 0.000000
v -4.331652 0.098833 -0.860724
v -4.473443 0.098833 -0.141791
v -4.189860 0.098833 -0.141791
v -3.675179 0.098833 0.000000
v -4.189860 0.098833 0.141791
v -4.331652 0.098833 0.860724
v -4.473443 0.098833 0.141791
v -4.988124 0.098833 0.000000
v -4.331652 0.119978 0.000000
vn -0.8962 -0.4070 -0.1767
vn 0.8962 -0.4070 -0.1767
vn 0.2407 -0.4227 -0.8737
vn 0.2407 -0.4227 0.8737
vn 0.8962 -0.4070 0.1767
vn -0.8962 -0.4070 0.1767
vn 0.1074 0.9147 0.3897
vn -0.2407 -0.4227 0.8737
vn -0.2407 -0.4227 -0.8737
vn 0.0320 0.9927 -0.1161
vn -0.1074 0.9147 0.3897
vn 0.4119 0.9076 -0.0812
vn 0.4119 0.9076 0.0812
vn -0.1074 0.9147 -0.3897
vn -0.4119 0.9076 -0.0812
vn 0.1074 0.9147 -0.3897
vn -0.4119 0.9076 0.0812
vn -0.1236 0.9920 -0.0244
vn -0.0320 0.9927 -0.1161
vn -0.1236 0.9920 0.0244
vn 0.0320 0.9927 0.1161
vn 0.1236 0.9920 -0.0244
vn -0.0320 0.9927 0.1161
vn 0.1236 0.9920 0.0244
vt 1.000000 0.500000
vt 1.000000 1.000000
vt 0.875000 1.000000
vt 0.875000 0.500000
vt 0.750000 1.000000
vt 0.750000 0.500000
vt 0.625000 1.000000
vt 0.625000 0.500000
vt 0.500000 1.000000
vt 0.500000 0.500000
vt 0.375000 1.000000
vt 0.375000 0.500000
vt 0.250000 1.000000
vt 0.250000 0.500000
vt 0.125000 1.000000
vt 0.125000 0.500000
vt 0.000000 1.000000
vt 0.000000 0.500000
s 0
f 1/1/1 2/2/1 4/3/1 3/4/1
f 3/4/2 4/3/2 6/5/2 5/6/2
f 5/6/3 6/5/3 8/7/3 7/8/3
f 7/8/4 8/7/4 10/9/4 9/10/4
f 9/10/5 10/9/5 12/11/5 11/12/5
f 11/12/6 12/11/6 14/13/6 13/14/6
f 10/9/7 8/7/7 20/7/7 21/9/7
f 13/14/8 14/13/8 16/15/8 15/16/8
f 15/16/9 16/15/9 2/17/9 1/18/9
f 20/7/10 19/5/10 25/7/10
f 16/15/11 14/13/11 23/13/11 24/15/11
f 6/5/12 4/3/12 17/3/12 19/5/12
f 12/11/13 10/9/13 21/9/13 22/11/13
f 2/17/14 16/15/14 24/15/14 18/17/14
f 4/3/15 2/2/15 18/2/15 17/3/15
f 8/7/16 6/5/16 19/5/16 20/7/16
f 14/13/17 12/11/17 22/11/17 23/13/17
f 17/3/18 18/2/18 25/3/18
f 18/17/19 24/15/19 25/17/19
f 23/13/20 22/11/20 25/13/20
f 21/9/21 20/7/21 25/9/21
f 19/5/22 17/3/22 25/5/22
f 24/15/23 23/13/23 25/15/23
f 22/11/24 21/9/24 25/11/24
