# Blender 5.1.0
# www.blender.org
mtllib Cylinder.mtl
o Cylinder
v -2.334512 -0.125953 -0.475201
v -1.896102 -0.125953 -0.603419
v -1.882568 -0.125953 -0.146845
v -1.625149 -0.125953 0.230486
v -2.055195 -0.125953 0.384446
v -2.334512 -0.125953 0.745867
v -2.613828 -0.125953 0.384446
v -3.043874 -0.125953 0.230486
v -2.786455 -0.125953 -0.146845
v -2.772921 -0.125953 -0.603419
v -2.334512 0.238844 -0.430422
v -2.334512 0.040464 -0.637112
v -1.937414 0.238844 -0.546558
v -1.746726 0.040464 -0.809017
v -1.925156 0.238844 -0.133008
v -1.728582 0.040464 -0.196878
v -1.691994 0.238844 0.208766
v -1.383455 0.040464 0.309017
v -2.081516 0.238844 0.348219
v -1.960027 0.040464 0.515435
v -2.334512 0.238844 0.675582
v -2.334512 0.040464 1.000000
v -2.587507 0.238844 0.348219
v -2.708997 0.040464 0.515435
v -2.977029 0.238844 0.208766
v -3.285568 0.040464 0.309017
v -2.743867 0.238844 -0.133008
v -2.940441 0.040464 -0.196878
v -2.731609 0.238844 -0.546558
v -2.922297 0.040464 -0.809017
v -2.334512 0.310152 -0.000000
vn -0.1985 0.7071 -0.6787
vn 0.7068 0.7071 -0.0210
vn 0.5841 0.7071 -0.3985
vn 0.2383 0.7071 0.6657
vn 0.5595 0.7071 0.4324
vn -0.5595 0.7071 0.4324
vn -0.2383 0.7071 0.6657
vn -0.5841 0.7071 -0.3985
vn -0.7068 0.7071 -0.0210
vn 0.1985 0.7071 -0.6787
vn -0.0573 0.9854 0.1601
vn -0.2052 -0.6825 -0.7015
vn 0.2052 -0.6825 -0.7015
vn 0.7306 -0.6825 -0.0217
vn 0.6038 -0.6825 -0.4119
vn 0.2464 -0.6825 0.6881
vn 0.5783 -0.6825 0.4469
vn -0.5783 -0.6825 0.4469
vn -0.2464 -0.6825 0.6881
vn -0.6038 -0.6825 -0.4119
vn -0.7306 -0.6825 -0.0217
vn -0.1346 0.9854 0.1040
vn 0.1346 0.9854 0.1040
vn 0.0477 0.9854 -0.1633
vn 0.0573 0.9854 0.1601
vn 0.1405 0.9854 -0.0959
vn 0.1700 0.9854 -0.0050
vn -0.0477 0.9854 -0.1633
vn -0.1700 0.9854 -0.0050
vn -0.1405 0.9854 -0.0959
vt 0.391068 0.444164
vt 0.250000 0.490000
vt 0.250000 0.390205
vt 0.360093 0.401530
vt 0.478254 0.324164
vt 0.383343 0.293326
vt 0.478254 0.175836
vt 0.428134 0.192121
vt 0.391068 0.055836
vt 0.332410 0.136572
vt 0.250000 0.010000
vt 0.250000 0.062699
vt 0.108932 0.055836
vt 0.167590 0.136572
vt 0.021746 0.175836
vt 0.071866 0.192121
vt 0.021746 0.324164
vt 0.116657 0.293326
vt 0.108932 0.444164
vt 0.139907 0.401530
vt 1.000000 0.500000
vt 1.000000 0.792354
vt 0.900000 0.792354
vt 0.900000 0.500000
vt 0.100000 0.500000
vt 0.100000 0.792354
vt -0.000000 0.792354
vt -0.000000 0.500000
vt 0.800000 0.792354
vt 0.800000 0.500000
vt 0.700000 0.792354
vt 0.700000 0.500000
vt 0.600000 0.792354
vt 0.600000 0.500000
vt 0.500000 0.792354
vt 0.500000 0.500000
vt 0.400000 0.792354
vt 0.400000 0.500000
vt 0.300000 0.792354
vt 0.300000 0.500000
vt 0.200000 0.792354
vt 0.200000 0.500000
s 0
f 14/1/1 12/2/1 11/3/1 13/4/1
f 16/5/2 14/1/2 13/4/2 15/6/2
f 18/7/3 16/5/3 15/6/3 17/8/3
f 20/9/4 18/7/4 17/8/4 19/10/4
f 22/11/5 20/9/5 19/10/5 21/12/5
f 24/13/6 22/11/6 21/12/6 23/14/6
f 26/15/7 24/13/7 23/14/7 25/16/7
f 28/17/8 26/15/8 25/16/8 27/18/8
f 30/19/9 28/17/9 27/18/9 29/20/9
f 12/2/10 30/19/10 29/20/10 11/3/10
f 25/16/11 23/14/11 31/16/11
f 1/21/12 12/22/12 14/23/12 2/24/12
f 10/25/13 30/26/13 12/27/13 1/28/13
f 2/24/14 14/23/14 16/29/14 3/30/14
f 3/30/15 16/29/15 18/31/15 4/32/15
f 4/32/16 18/31/16 20/33/16 5/34/16
f 5/34/17 20/33/17 22/35/17 6/36/17
f 6/36/18 22/35/18 24/37/18 7/38/18
f 7/38/19 24/37/19 26/39/19 8/40/19
f 8/40/20 26/39/20 28/41/20 9/42/20
f 9/42/21 28/41/21 30/26/21 10/25/21
f 23/14/22 21/12/22 31/14/22
f 21/12/23 19/10/23 31/12/23
f 11/3/24 29/20/24 31/3/24
f 19/10/25 17/8/25 31/10/25
f 17/8/26 15/6/26 31/8/26
f 15/6/27 13/4/27 31/6/27
f 13/4/28 11/3/28 31/4/28
f 29/20/29 27/18/29 31/20/29
f 27/18/30 25/16/30 31/18/30
