# Blender 5.1.0
# www.blender.org
mtllib Icosphere.001.mtl
o Icosphere.001
v 1.031376 -0.283794 -0.012587
v 1.298463 -0.246578 0.207314
v 1.312181 -0.603858 -0.015630
v 1.202642 -0.382865 0.107805
v 1.098745 0.008963 0.259630
v 1.045541 0.182586 0.218427
v 0.881016 -0.031683 0.053199
v 0.899886 0.274035 0.077466
v 1.207864 -0.011719 0.308178
v 1.240899 0.240715 0.248475
v 1.122857 -0.164273 0.156268
v 1.162409 0.441163 0.038196
v 1.010326 -0.235072 -0.287846
v 1.300386 -0.729985 -0.363617
v 1.005883 -0.315507 -0.366409
v 1.348988 -0.526406 -0.495583
v 1.247640 -0.264564 -0.611822
v 1.018149 -0.017519 -0.272408
v 1.079902 0.191529 -0.198299
v 1.233481 0.044856 -0.485124
v 1.291142 0.265236 -0.346747
v 1.260785 -0.134529 -0.588929
v 1.570386 -0.228274 0.196895
v 1.574207 -0.700577 -0.047156
v 1.657285 -0.359761 0.122927
v 1.735132 -0.474772 -0.149114
v 1.764583 -0.322697 0.017114
v 1.605967 -0.059211 0.246839
v 1.510849 0.155434 0.222564
v 1.721612 -0.045944 0.167444
v 1.603962 0.448089 0.020891
v 1.877088 -0.044419 0.059566
v 1.824875 0.193192 0.011303
v 1.560679 -0.821094 -0.309484
v 1.732812 -0.344539 -0.422103
v 1.528184 -0.522333 -0.493643
v 1.531388 -0.390007 -0.563658
v 1.748946 -0.482095 -0.201765
v 1.846154 -0.340546 -0.306669
v 1.686530 -0.059387 -0.462921
v 1.651198 0.407511 -0.207768
v 1.576443 -0.144074 -0.542214
v 2.004877 0.041922 -0.270509
v 1.860383 0.253866 -0.215878
vn -0.6926 -0.0241 0.7209
vn -0.2685 0.2099 0.9401
vn -0.5172 -0.4905 0.7014
vn -0.2969 0.6327 0.7152
vn -0.5412 -0.4426 -0.7149
vn -0.6521 0.4741 -0.5916
vn 0.7800 -0.4643 0.4195
vn 0.5327 0.3461 0.7723
vn 0.4754 0.3278 0.8164
vn 0.5831 -0.3828 -0.7165
vn 0.8044 -0.4758 -0.3559
vn 0.3329 0.4630 -0.8214
vn -0.0274 -0.4639 0.8855
vn 0.0256 -0.5441 0.8386
vn 0.1652 0.1957 0.9666
vn 0.1163 0.6347 0.7639
vn -0.0151 -0.4303 -0.9026
vn 0.0025 -0.5327 -0.8463
vn 0.1477 0.4878 -0.8603
vn 0.1532 0.5302 -0.8339
vn -0.7974 -0.5529 0.2418
vn -0.7408 -0.6622 0.1127
vn 0.8693 -0.4270 0.2488
vn 0.8306 -0.5157 0.2101
vn -0.8513 0.2240 -0.4744
vn -0.5417 0.6655 -0.5135
vn 0.8600 0.3713 0.3500
vn 0.6837 0.7130 0.1555
vn -0.4304 -0.4241 0.7968
vn -0.6074 -0.4550 0.6512
vn -0.7278 0.2311 -0.6457
vn -0.7845 0.2157 -0.5814
vn 0.4801 -0.2630 0.8368
vn 0.6287 -0.2935 0.7201
vn 0.5859 -0.0282 -0.8099
vn 0.5943 -0.1057 -0.7973
vn -0.9453 -0.2508 -0.2089
vn 0.8869 -0.3930 0.2428
vn 0.0856 -0.3382 0.9372
vn 0.1751 0.0885 -0.9806
vn -0.3289 -0.8707 0.3655
vn -0.1176 0.9254 -0.3602
s 0
f 5//1 6//1 8//1 7//1
f 5//2 9//2 10//2 6//2
f 5//3 7//3 11//3 9//3
f 10//4 12//4 8//4 6//4
f 14//5 15//5 17//5 16//5
f 19//6 21//6 20//6 18//6
f 24//7 26//7 27//7 25//7
f 30//8 31//8 29//8 28//8
f 30//9 32//9 33//9 31//9
f 36//10 37//10 35//10 34//10
f 35//11 39//11 38//11 34//11
f 41//12 44//12 43//12 40//12
f 3//13 24//13 25//13 4//13
f 2//14 4//14 25//14 23//14
f 9//15 28//15 29//15 10//15
f 29//16 31//16 12//16 10//16
f 17//17 37//17 36//17 16//17
f 14//18 16//18 36//18 34//18
f 21//19 41//19 40//19 20//19
f 40//20 42//20 22//20 20//20
f 3//21 4//21 15//21 14//21
f 1//22 13//22 15//22 4//22
f 38//23 39//23 27//23 26//23
f 24//24 34//24 38//24 26//24
f 7//25 8//25 19//25 18//25
f 12//26 21//26 19//26 8//26
f 43//27 44//27 33//27 32//27
f 33//28 44//28 41//28 31//28
f 2//29 9//29 11//29 4//29
f 1//30 4//30 11//30 7//30
f 15//31 20//31 22//31 17//31
f 18//32 20//32 15//32 13//32
f 25//33 30//33 28//33 23//33
f 25//34 27//34 32//34 30//34
f 37//35 42//35 40//35 35//35
f 40//36 43//36 39//36 35//36
f 1//37 7//37 18//37 13//37
f 39//38 43//38 32//38 27//38
f 2//39 23//39 28//39 9//39
f 22//40 42//40 37//40 17//40
f 3//41 14//41 34//41 24//41
f 31//42 41//42 21//42 12//42
